<?xml version="1.0" standalone="no"?>
<!DOCTYPE svg PUBLIC "-//W3C//DTD SVG 20010904//EN"
 "http://www.w3.org/TR/2001/REC-SVG-20010904/DTD/svg10.dtd">
<svg version="1.0" xmlns="http://www.w3.org/2000/svg"
 width="500.000000pt" height="500.000000pt" viewBox="0 0 500.000000 500.000000"
 preserveAspectRatio="xMidYMid meet">

<g transform="translate(0.000000,500.000000) scale(0.100000,-0.100000)"
fill="#000000" stroke="none">
<path d="M2032 3024 c-24 -16 -28 -47 -12 -88 9 -24 7 -26 -37 -38 -141 -40
-84 -169 62 -139 68 13 107 29 100 40 -3 5 0 13 6 17 8 4 9 3 5 -4 -12 -21 12
-13 27 8 8 11 17 17 21 13 4 -4 11 -1 15 6 7 10 13 11 30 2 17 -9 19 -16 11
-30 -5 -10 -17 -21 -25 -25 -10 -4 -14 -2 -9 5 4 7 -1 10 -12 7 -10 -2 -20
-11 -22 -21 -5 -24 34 -22 76 3 39 24 41 44 7 66 -19 12 -24 22 -19 37 4 13 2
17 -5 13 -17 -11 -13 0 6 15 14 12 16 12 8 0 -6 -11 -4 -13 8 -8 10 4 24 10
32 13 10 4 15 0 15 -12 0 -17 1 -17 16 -2 35 35 -20 52 -75 23 -16 -8 -34 -28
-41 -45 -10 -25 -15 -29 -21 -17 -7 12 -16 8 -47 -23 -43 -43 -99 -63 -170
-58 -42 3 -47 5 -47 28 0 35 56 70 111 70 50 0 66 16 31 29 -32 13 -43 55 -22
88 16 24 17 24 37 6 11 -10 24 -28 29 -40 11 -30 29 -29 29 1 0 27 -51 76 -79
76 -9 0 -27 -7 -39 -16z m4 -39 c-6 -19 -13 -30 -14 -25 -6 16 7 60 17 60 4 0
3 -16 -3 -35z m104 -15 c0 -11 -2 -20 -4 -20 -2 0 -6 9 -9 20 -3 11 -1 20 4
20 5 0 9 -9 9 -20z m-174 -99 c-16 -11 -36 -30 -44 -43 -8 -14 -11 -16 -8 -5
3 10 6 23 6 27 0 10 48 39 65 40 6 0 -3 -9 -19 -19z"/>
<path d="M2452 3027 c-14 -7 -38 -41 -62 -91 -22 -45 -42 -80 -45 -78 -3 2
-11 2 -18 -1 -9 -3 -9 -7 1 -19 11 -14 7 -30 -22 -104 -20 -48 -33 -90 -30
-93 14 -14 40 22 59 85 29 95 41 114 71 114 19 0 26 -6 30 -29 4 -17 12 -32
19 -35 20 -7 77 34 104 77 13 20 31 37 39 37 12 0 12 -4 -2 -22 -31 -43 -38
-70 -23 -86 21 -21 70 8 110 64 17 24 37 44 45 44 12 0 12 -4 -2 -22 -31 -44
-38 -70 -22 -86 13 -13 19 -12 50 6 28 17 35 18 40 6 6 -15 61 -20 70 -5 7 11
66 20 66 10 0 -17 42 -20 65 -5 22 15 25 15 25 1 0 -26 53 -18 83 13 39 41 34
63 -6 24 -18 -18 -36 -32 -40 -32 -14 0 -7 35 13 68 24 40 25 42 2 42 -10 0
-25 -12 -34 -28 -33 -56 -88 -102 -88 -73 0 4 11 25 25 45 29 43 30 46 11 46
-8 0 -29 -18 -46 -40 -34 -43 -58 -54 -39 -19 8 16 8 27 -2 45 -21 40 -52 30
-104 -31 -64 -75 -90 -75 -40 -1 31 45 31 56 4 56 -16 0 -20 5 -16 20 3 12 0
20 -7 20 -16 0 -46 -32 -46 -50 0 -16 -68 -100 -81 -100 -15 0 -11 15 16 54
31 45 31 56 4 56 -16 0 -20 5 -16 20 3 12 0 20 -7 20 -17 0 -46 -33 -46 -51 0
-20 -76 -106 -86 -96 -4 4 -2 22 5 40 23 57 24 67 9 67 -8 0 -20 -11 -26 -24
-7 -16 -19 -24 -31 -23 -19 1 -18 4 10 33 19 19 37 30 46 27 8 -3 19 0 24 8
13 21 11 32 -6 25 -13 -4 -13 -2 -5 14 23 44 -4 77 -48 57z m27 -16 c12 -8 7
-20 -28 -65 -23 -31 -44 -56 -47 -56 -6 0 24 58 48 93 11 15 17 27 14 27 -3 0
-19 -19 -36 -42 -36 -50 -40 -38 -5 15 27 39 32 42 54 28z m103 -103 c-7 -7
-12 -8 -12 -2 0 6 3 14 7 17 3 4 9 5 12 2 2 -3 -1 -11 -7 -17z m130 0 c-7 -7
-12 -8 -12 -2 0 6 3 14 7 17 3 4 9 5 12 2 2 -3 -1 -11 -7 -17z m-236 -45 c-18
-33 -21 -26 -6 13 6 15 13 24 16 21 3 -3 -1 -18 -10 -34z m164 33 c0 -3 -4 -8
-10 -11 -5 -3 -10 -1 -10 4 0 6 5 11 10 11 6 0 10 -2 10 -4z m130 0 c0 -3 -4
-8 -10 -11 -5 -3 -10 -1 -10 4 0 6 5 11 10 11 6 0 10 -2 10 -4z m289 -28 c-7
-12 -16 -36 -20 -53 -6 -24 -7 -26 -8 -7 -1 26 27 98 35 89 3 -3 0 -16 -7 -29z
m-229 1 c-7 -11 -14 -18 -17 -15 -3 3 0 12 7 21 18 21 23 19 10 -6z m50 -4 c0
-14 -4 -25 -10 -25 -5 0 -10 -7 -10 -15 0 -8 -9 -19 -20 -25 -17 -9 -20 -8
-20 13 0 25 34 77 51 77 5 0 9 -11 9 -25z m92 3 c-7 -7 -12 -8 -12 -2 0 6 3
14 7 17 3 4 9 5 12 2 2 -3 -1 -11 -7 -17z m-381 -54 c-5 -16 -10 -21 -10 -12
-1 18 10 51 15 45 2 -1 -1 -16 -5 -33z m130 0 c-5 -16 -10 -21 -10 -12 -1 18
10 51 15 45 2 -1 -1 -16 -5 -33z m-264 -16 c-3 -8 -6 -5 -6 6 -1 11 2 17 5 13
3 -3 4 -12 1 -19z m-147 -118 c-17 -32 -22 -19 -7 19 7 20 13 27 15 18 2 -9
-2 -26 -8 -37z"/>
</g>
</svg>
